<?xml version="1.0" standalone="no"?>
<!DOCTYPE svg PUBLIC "-//W3C//DTD SVG 20010904//EN"
 "http://www.w3.org/TR/2001/REC-SVG-20010904/DTD/svg10.dtd">
<svg version="1.0" xmlns="http://www.w3.org/2000/svg"
 width="2952.000000pt" height="2706.000000pt" viewBox="0 0 2952.000000 2706.000000"
 preserveAspectRatio="xMidYMid meet">

<g transform="translate(0.000000,2706.000000) scale(0.100000,-0.100000)"
fill="#000000" stroke="none">
<path d="M25940 25180 l0 -50 135 0 135 0 0 -370 0 -370 55 0 55 0 0 370 0
370 140 0 140 0 0 50 0 50 -330 0 -330 0 0 -50z"/>
<path d="M26707 25224 c-4 -4 -7 -193 -7 -421 l0 -413 55 0 55 0 0 348 c0 191
4 340 9 332 4 -8 59 -165 121 -347 l113 -333 51 0 51 0 108 313 c60 171 115
326 122 342 11 26 13 -19 14 -312 l1 -343 55 0 55 0 -2 418 -3 417 -74 0 -74
0 -121 -347 c-67 -190 -123 -344 -126 -342 -2 3 -57 159 -121 347 l-116 342
-80 3 c-43 1 -82 0 -86 -4z"/>
<path d="M5840 23549 c-129 -5 -386 -7 -570 -6 l-335 2 -7 -340 c-22 -1101
-85 -2321 -143 -2797 l-4 -38 827 0 c966 0 1106 7 1387 71 322 73 630 298 814
593 176 283 267 613 278 1008 6 198 -7 330 -47 503 -103 439 -354 751 -725
900 -145 58 -295 88 -520 105 -157 11 -600 11 -955 -1z m717 -699 c202 -40
338 -143 426 -322 73 -147 91 -237 91 -458 0 -139 -4 -206 -17 -270 -54 -261
-151 -440 -302 -563 -155 -125 -305 -166 -652 -174 -121 -3 -242 -2 -269 2
l-47 7 7 121 c7 130 26 569 51 1167 12 313 23 496 29 502 0 0 71 4 156 8 212
10 417 2 527 -20z"/>
<path d="M13040 23548 c-146 -5 -403 -7 -573 -5 -306 4 -307 4 -312 -17 -2
-12 -6 -271 -9 -576 -3 -329 -14 -720 -26 -960 -46 -937 -49 -986 -85 -1465
-3 -44 -8 -97 -10 -117 l-5 -38 473 0 474 0 6 393 c13 760 53 1894 73 2063 l5
42 52 6 c129 14 374 19 441 7 131 -23 207 -81 239 -184 56 -179 -30 -376 -199
-454 -80 -37 -154 -46 -315 -40 l-146 5 29 -101 c15 -56 50 -196 77 -312 l48
-210 64 -13 c97 -19 365 -18 479 2 202 36 353 92 487 178 284 184 453 516 453
887 0 259 -78 481 -223 637 -159 170 -332 251 -588 274 -133 11 -531 11 -909
-2z"/>
<path d="M1380 23540 c-7 -90 -11 -157 -20 -365 -19 -455 -20 -490 -25 -545
-3 -30 -7 -120 -11 -200 -3 -80 -7 -147 -9 -150 -1 -3 -6 -50 -9 -105 -8 -126
-15 -205 -26 -325 -21 -207 -31 -539 -20 -636 31 -281 124 -450 326 -596 290
-208 685 -308 1214 -308 438 0 777 63 1045 195 275 135 416 275 508 506 58
145 82 321 97 710 5 145 17 361 25 479 8 118 22 314 30 435 18 279 44 659 54
795 4 58 6 108 4 113 -2 4 -233 7 -513 7 -474 0 -508 -1 -515 -17 -3 -10 -13
-160 -20 -333 -34 -744 -80 -1410 -111 -1605 -62 -383 -244 -560 -574 -559
-289 1 -467 120 -525 353 -30 118 -35 276 -20 623 8 183 19 387 24 453 6 66
13 161 16 210 3 50 8 117 10 150 3 33 10 125 15 205 6 80 15 204 20 275 5 72
10 155 10 185 l0 55 -500 0 c-275 0 -500 -2 -500 -5z"/>
<path d="M9565 23541 c-3 -2 -70 -135 -150 -295 -79 -160 -165 -329 -190 -376
-26 -47 -76 -141 -112 -210 -36 -69 -78 -147 -93 -175 -35 -65 -105 -196 -165
-310 -26 -49 -64 -121 -85 -160 -124 -233 -572 -1077 -618 -1165 -30 -58 -99
-182 -153 -275 -54 -94 -101 -178 -105 -188 -6 -16 27 -17 544 -17 l549 0 43
98 c97 220 188 419 287 623 l86 179 587 0 586 0 33 -92 c85 -242 176 -517 216
-653 l43 -150 531 -3 c292 -1 531 1 531 5 0 5 -20 60 -46 123 -25 63 -92 241
-150 395 -57 154 -113 303 -123 330 -18 46 -114 305 -291 785 -151 408 -213
579 -252 690 -22 63 -50 144 -63 180 -37 104 -79 221 -155 440 -40 113 -76
209 -80 214 -9 9 -1197 16 -1205 7z m645 -993 c51 -156 114 -349 141 -431 27
-81 49 -152 49 -157 0 -12 -696 -14 -703 -2 -3 4 30 77 72 162 94 191 198 409
246 515 76 169 89 195 96 195 4 0 48 -127 99 -282z"/>
<path d="M9775 15584 c-151 -32 -268 -90 -370 -186 -41 -39 -92 -97 -112 -130
-20 -32 -147 -265 -282 -516 l-246 -457 -40 0 c-22 1 -125 10 -230 20 -341 36
-1054 24 -1320 -21 l-30 -5 -270 472 c-148 260 -294 502 -322 539 -88 114
-231 206 -383 247 -87 23 -261 23 -349 0 -57 -15 -1604 -673 -1722 -733 -121
-61 -239 -184 -304 -319 -72 -149 -93 -306 -61 -455 8 -36 78 -277 155 -536
78 -259 141 -475 141 -481 0 -5 -50 -49 -110 -97 -353 -281 -814 -752 -1056
-1079 -27 -36 -52 -66 -57 -67 -4 0 -233 61 -510 136 l-502 137 -120 1 c-99 1
-133 -3 -195 -23 -106 -33 -215 -92 -287 -156 -122 -109 -129 -124 -501 -1056
-187 -470 -345 -878 -351 -907 -18 -86 -14 -239 9 -326 38 -151 145 -310 268
-399 26 -19 250 -144 497 -277 248 -134 451 -244 452 -244 1 -1 -5 -62 -13
-136 -9 -81 -17 -285 -21 -510 -5 -387 5 -595 42 -887 9 -65 17 -129 18 -142
2 -21 -41 -49 -446 -282 -247 -141 -473 -279 -503 -304 -97 -83 -192 -241
-225 -375 -20 -80 -18 -270 5 -345 21 -72 683 -1620 735 -1720 35 -68 173
-225 197 -225 8 0 1290 1312 1675 1714 l66 69 -79 196 c-130 323 -210 608
-268 954 -50 300 -63 464 -64 782 0 312 13 471 59 721 219 1187 981 2050 2308
2618 812 348 1817 572 3032 676 127 11 234 20 238 20 5 0 -11 -22 -35 -48 -39
-44 -2365 -2439 -2600 -2678 l-100 -101 352 -1244 c194 -684 356 -1248 360
-1253 5 -5 573 -152 1262 -327 l1253 -318 101 102 c86 86 2426 2495 2626 2702
l68 70 0 -140 c0 -240 -25 -661 -61 -1035 -220 -2296 -987 -3852 -2198 -4464
-367 -185 -741 -288 -1190 -327 -198 -17 -700 -6 -916 20 -431 53 -842 144
-1365 305 l-245 75 -42 -42 c-24 -23 -391 -400 -817 -837 l-774 -795 42 -43
c84 -88 137 -112 992 -453 456 -183 861 -340 899 -351 57 -16 93 -19 195 -15
143 4 239 31 345 95 76 45 176 141 224 212 21 30 147 259 281 509 l244 453 61
-6 c246 -24 348 -29 635 -30 181 0 392 6 475 13 155 13 377 37 430 47 l30 5
280 -487 c277 -482 281 -489 370 -580 78 -79 103 -98 185 -137 156 -75 315
-96 474 -62 82 17 1701 709 1786 763 235 148 368 428 331 692 -6 41 -83 317
-171 614 -89 296 -158 542 -153 546 4 4 73 63 153 131 172 146 516 488 654
649 54 63 150 181 214 262 63 80 120 145 126 143 29 -10 992 -269 1066 -287
175 -42 374 -11 534 84 87 51 191 154 239 236 58 100 703 1726 723 1824 43
213 -25 449 -177 612 -38 40 -92 89 -121 109 -29 19 -278 157 -553 306 l-500
270 0 53 c1 29 7 161 14 293 20 344 3 783 -43 1113 l-12 93 55 33 c31 18 243
140 471 271 228 130 443 255 478 277 128 83 239 230 292 388 30 90 38 258 16
360 -19 88 -707 1700 -764 1790 -49 77 -90 123 -161 180 -149 120 -360 179
-539 151 -41 -6 -322 -86 -626 -176 -304 -91 -556 -165 -559 -165 -3 0 -50 53
-105 118 -157 186 -366 405 -528 554 -130 119 -200 179 -392 338 l-43 35 151
555 c92 339 153 585 158 633 17 163 -23 331 -109 463 -56 86 -169 191 -254
236 -107 56 -1701 688 -1775 704 -60 13 -218 17 -265 8z m-1448 -6377 c398
-101 725 -185 727 -188 3 -3 97 -331 210 -729 l205 -725 -142 -145 c-79 -80
-316 -323 -528 -540 -230 -236 -390 -394 -400 -393 -40 5 -1445 365 -1450 371
-10 12 -410 1434 -407 1447 4 17 1040 1083 1053 1084 6 0 335 -82 732 -182z"/>
</g>
</svg>
